<?xml version="1.0" encoding="utf-8"?>
<svg xmlns="http://www.w3.org/2000/svg" xmlns:xlink="http://www.w3.org/1999/xlink" style="margin: auto; background: none; display: block; shape-rendering: auto;" width="200px" height="200px" viewBox="0 0 100 100" preserveAspectRatio="xMidYMid">
<g transform="rotate(0 50 50)">
  <rect x="44" y="-1" rx="6" ry="8.64" width="12" height="24" fill="#2f49ff">
    <animate attributeName="opacity" values="1;0" keyTimes="0;1" dur="1.1627906976744187s" begin="-1.0465116279069768s" repeatCount="indefinite"></animate>
  </rect>
</g><g transform="rotate(36 50 50)">
  <rect x="44" y="-1" rx="6" ry="8.64" width="12" height="24" fill="#2f49ff">
    <animate attributeName="opacity" values="1;0" keyTimes="0;1" dur="1.1627906976744187s" begin="-0.9302325581395349s" repeatCount="indefinite"></animate>
  </rect>
</g><g transform="rotate(72 50 50)">
  <rect x="44" y="-1" rx="6" ry="8.64" width="12" height="24" fill="#2f49ff">
    <animate attributeName="opacity" values="1;0" keyTimes="0;1" dur="1.1627906976744187s" begin="-0.813953488372093s" repeatCount="indefinite"></animate>
  </rect>
</g><g transform="rotate(108 50 50)">
  <rect x="44" y="-1" rx="6" ry="8.64" width="12" height="24" fill="#2f49ff">
    <animate attributeName="opacity" values="1;0" keyTimes="0;1" dur="1.1627906976744187s" begin="-0.6976744186046512s" repeatCount="indefinite"></animate>
  </rect>
</g><g transform="rotate(144 50 50)">
  <rect x="44" y="-1" rx="6" ry="8.64" width="12" height="24" fill="#2f49ff">
    <animate attributeName="opacity" values="1;0" keyTimes="0;1" dur="1.1627906976744187s" begin="-0.5813953488372093s" repeatCount="indefinite"></animate>
  </rect>
</g><g transform="rotate(180 50 50)">
  <rect x="44" y="-1" rx="6" ry="8.64" width="12" height="24" fill="#2f49ff">
    <animate attributeName="opacity" values="1;0" keyTimes="0;1" dur="1.1627906976744187s" begin="-0.46511627906976744s" repeatCount="indefinite"></animate>
  </rect>
</g><g transform="rotate(216 50 50)">
  <rect x="44" y="-1" rx="6" ry="8.64" width="12" height="24" fill="#2f49ff">
    <animate attributeName="opacity" values="1;0" keyTimes="0;1" dur="1.1627906976744187s" begin="-0.3488372093023256s" repeatCount="indefinite"></animate>
  </rect>
</g><g transform="rotate(252 50 50)">
  <rect x="44" y="-1" rx="6" ry="8.64" width="12" height="24" fill="#2f49ff">
    <animate attributeName="opacity" values="1;0" keyTimes="0;1" dur="1.1627906976744187s" begin="-0.23255813953488372s" repeatCount="indefinite"></animate>
  </rect>
</g><g transform="rotate(288 50 50)">
  <rect x="44" y="-1" rx="6" ry="8.64" width="12" height="24" fill="#2f49ff">
    <animate attributeName="opacity" values="1;0" keyTimes="0;1" dur="1.1627906976744187s" begin="-0.11627906976744186s" repeatCount="indefinite"></animate>
  </rect>
</g><g transform="rotate(324 50 50)">
  <rect x="44" y="-1" rx="6" ry="8.64" width="12" height="24" fill="#2f49ff">
    <animate attributeName="opacity" values="1;0" keyTimes="0;1" dur="1.1627906976744187s" begin="0s" repeatCount="indefinite"></animate>
  </rect>
</g>
<!-- [ldio] generated by https://loading.io/ --></svg>