<?xml version="1.0" encoding="utf-8"?>
<svg xmlns="http://www.w3.org/2000/svg" xmlns:xlink="http://www.w3.org/1999/xlink" style="margin: auto; background: rgba(238, 238, 238,0); display: block; shape-rendering: auto;" width="197px" height="197px" viewBox="0 0 100 100" preserveAspectRatio="xMidYMid">
<g transform="rotate(0 50 50)">
  <rect x="47" y="15" rx="2.04" ry="2.04" width="6" height="12" fill="#2d2d2d">
    <animate attributeName="opacity" values="1;0" keyTimes="0;1" dur="2.272727272727273s" begin="-2.0454545454545454s" repeatCount="indefinite"></animate>
  </rect>
</g><g transform="rotate(36 50 50)">
  <rect x="47" y="15" rx="2.04" ry="2.04" width="6" height="12" fill="#2d2d2d">
    <animate attributeName="opacity" values="1;0" keyTimes="0;1" dur="2.272727272727273s" begin="-1.8181818181818181s" repeatCount="indefinite"></animate>
  </rect>
</g><g transform="rotate(72 50 50)">
  <rect x="47" y="15" rx="2.04" ry="2.04" width="6" height="12" fill="#2d2d2d">
    <animate attributeName="opacity" values="1;0" keyTimes="0;1" dur="2.272727272727273s" begin="-1.5909090909090908s" repeatCount="indefinite"></animate>
  </rect>
</g><g transform="rotate(108 50 50)">
  <rect x="47" y="15" rx="2.04" ry="2.04" width="6" height="12" fill="#2d2d2d">
    <animate attributeName="opacity" values="1;0" keyTimes="0;1" dur="2.272727272727273s" begin="-1.3636363636363635s" repeatCount="indefinite"></animate>
  </rect>
</g><g transform="rotate(144 50 50)">
  <rect x="47" y="15" rx="2.04" ry="2.04" width="6" height="12" fill="#2d2d2d">
    <animate attributeName="opacity" values="1;0" keyTimes="0;1" dur="2.272727272727273s" begin="-1.1363636363636362s" repeatCount="indefinite"></animate>
  </rect>
</g><g transform="rotate(180 50 50)">
  <rect x="47" y="15" rx="2.04" ry="2.04" width="6" height="12" fill="#2d2d2d">
    <animate attributeName="opacity" values="1;0" keyTimes="0;1" dur="2.272727272727273s" begin="-0.9090909090909091s" repeatCount="indefinite"></animate>
  </rect>
</g><g transform="rotate(216 50 50)">
  <rect x="47" y="15" rx="2.04" ry="2.04" width="6" height="12" fill="#2d2d2d">
    <animate attributeName="opacity" values="1;0" keyTimes="0;1" dur="2.272727272727273s" begin="-0.6818181818181818s" repeatCount="indefinite"></animate>
  </rect>
</g><g transform="rotate(252 50 50)">
  <rect x="47" y="15" rx="2.04" ry="2.04" width="6" height="12" fill="#2d2d2d">
    <animate attributeName="opacity" values="1;0" keyTimes="0;1" dur="2.272727272727273s" begin="-0.45454545454545453s" repeatCount="indefinite"></animate>
  </rect>
</g><g transform="rotate(288 50 50)">
  <rect x="47" y="15" rx="2.04" ry="2.04" width="6" height="12" fill="#2d2d2d">
    <animate attributeName="opacity" values="1;0" keyTimes="0;1" dur="2.272727272727273s" begin="-0.22727272727272727s" repeatCount="indefinite"></animate>
  </rect>
</g><g transform="rotate(324 50 50)">
  <rect x="47" y="15" rx="2.04" ry="2.04" width="6" height="12" fill="#2d2d2d">
    <animate attributeName="opacity" values="1;0" keyTimes="0;1" dur="2.272727272727273s" begin="0s" repeatCount="indefinite"></animate>
  </rect>
</g>
<!-- [ldio] generated by https://loading.io/ --></svg>